<svg xmlns="http://www.w3.org/2000/svg" width="24" height="24" viewBox="0 0 24 24">
  <path d="M3.19,2.9 h17.63 a2.06,2.06 0 0,1 2.06,2.06 v15.86 a2.06,2.06 0 0,1 -2.06,2.06 h-17.63 a2.06,2.06 0 0,1 -2.06,-2.06 v-15.86 a2.06,2.06 0 0,1 2.06,-2.06 Z" fill="#EFEDEC"/>
  <path d="M1.13,4.96 a2.06,2.06 0 0,1 2.06,-2.06 H20.82 a2.06,2.06 0 0,1 2.06,2.06 V8.72 H1.13 Z" fill="#FC6E5D"/>
  <path d="M6.05,1.03 h0 a0.75,0.75 0 0,1 0.75,0.75 v3.47 a0.75,0.75 0 0,1 -0.75,0.75 h-0 a0.75,0.75 0 0,1 -0.75,-0.75 v-3.47 a0.75,0.75 0 0,1 0.75,-0.75 Z" fill="#FCD947"/>
  <path d="M10.13,1.03 h0 a0.75,0.75 0 0,1 0.75,0.75 v3.47 a0.75,0.75 0 0,1 -0.75,0.75 h-0 a0.75,0.75 0 0,1 -0.75,-0.75 v-3.47 a0.75,0.75 0 0,1 0.75,-0.75 Z" fill="#FCD947"/>
  <path d="M14.21,1.03 h0 a0.75,0.75 0 0,1 0.75,0.75 v3.47 a0.75,0.75 0 0,1 -0.75,0.75 h-0 a0.75,0.75 0 0,1 -0.75,-0.75 v-3.47 a0.75,0.75 0 0,1 0.75,-0.75 Z" fill="#FCD947"/>
  <path d="M18.09,1.03 h0 a0.75,0.75 0 0,1 0.75,0.75 v3.47 a0.75,0.75 0 0,1 -0.75,0.75 h-0 a0.75,0.75 0 0,1 -0.75,-0.75 v-3.47 a0.75,0.75 0 0,1 0.75,-0.75 Z" fill="#FCD947"/>
  <path d="M8.2,14.9 L11.16,17.25 L15.66,12.56" fill="none" stroke="#4A9BF0" stroke-width="2.06" stroke-linecap="round" stroke-linejoin="round"/>
</svg>
