<svg xmlns="http://www.w3.org/2000/svg" width="24" height="24" viewBox="0 0 24 24">
  <path d="M16.3,4.4 a3.3,3.3 0 1,1 6.6,0 a3.3,3.3 0 1,1 -6.6,0 Z" fill="#7C7C7C"/>
  <path d="M17.2,4.4 a2.4,2.4 0 1,1 4.8,0 a2.4,2.4 0 1,1 -4.8,0 Z" fill="#F2F2F2"/>
  <path d="M19.6,2.6 h0 a0.35,0.35 0 0,1 0.35,0.35 v1.4 a0.35,0.35 0 0,1 -0.35,0.35 h-0 a0.35,0.35 0 0,1 -0.35,-0.35 v-1.4 a0.35,0.35 0 0,1 0.35,-0.35 Z" fill="#7C7C7C"/>
  <path d="M19.6,4.05 h1.2 a0.35,0.35 0 0,1 0.35,0.35 v0 a0.35,0.35 0 0,1 -0.35,0.35 h-1.2 a0.35,0.35 0 0,1 -0.35,-0.35 v-0 a0.35,0.35 0 0,1 0.35,-0.35 Z" fill="#7C7C7C"/>
  <path d="M6.3,9.6 h1.4 a0,0 0 0,1 0,0 v2.2 a0,0 0 0,1 0,0 h-1.4 a0,0 0 0,1 0,0 v-2.2 a0,0 0 0,1 0,0 Z" fill="#6B6B6B"/>
  <path d="M3.4,3.3 h7.2 a1.1,1.1 0 0,1 1.1,1.1 v4.7 a1.1,1.1 0 0,1 -1.1,1.1 h-7.2 a1.1,1.1 0 0,1 -1.1,-1.1 v-4.7 a1.1,1.1 0 0,1 1.1,-1.1 Z" fill="#6B6B6B"/>
  <path d="M3.87,4.5 h0.01 a0.37,0.37 0 0,1 0.37,0.37 v1.06 a0.37,0.37 0 0,1 -0.37,0.37 h-0.01 a0.37,0.37 0 0,1 -0.37,-0.37 v-1.06 a0.37,0.37 0 0,1 0.37,-0.37 Z" fill="#8C8C8C"/>
  <path d="M2.4,14.1 h19.2 a0.8,0.8 0 0,1 0.8,0.8 v6.6 a0.8,0.8 0 0,1 -0.8,0.8 h-19.2 a0.8,0.8 0 0,1 -0.8,-0.8 v-6.6 a0.8,0.8 0 0,1 0.8,-0.8 Z" fill="#F0B70E"/>
  <path d="M21,14.1 h0.6 a0.8,0.8 0 0,1 0.8,0.8 v6.6 a0.8,0.8 0 0,1 -0.8,0.8 h-0.6 a0.8,0.8 0 0,1 -0.8,-0.8 v-6.6 a0.8,0.8 0 0,1 0.8,-0.8 Z" fill="#DDA409"/>
  <path d="M3.47,16 h0.01 a0.37,0.37 0 0,1 0.37,0.37 v1.26 a0.37,0.37 0 0,1 -0.37,0.37 h-0.01 a0.37,0.37 0 0,1 -0.37,-0.37 v-1.26 a0.37,0.37 0 0,1 0.37,-0.37 Z" fill="#F8CF52"/>
  <path d="M1.6,11.1 h20.8 a0.9,0.9 0 0,1 0.9,0.9 v1.5 a0.9,0.9 0 0,1 -0.9,0.9 h-20.8 a0.9,0.9 0 0,1 -0.9,-0.9 v-1.5 a0.9,0.9 0 0,1 0.9,-0.9 Z" fill="#E7E7E9"/>
  <path d="M22.1,11.1 h0.3 a0.9,0.9 0 0,1 0.9,0.9 v1.5 a0.9,0.9 0 0,1 -0.9,0.9 h-0.3 a0.9,0.9 0 0,1 -0.9,-0.9 v-1.5 a0.9,0.9 0 0,1 0.9,-0.9 Z" fill="#D1D1D5"/>
</svg>
